Coordinates
version=1
nRows=65
nColumns=12
inDegrees=yes

Units are S.I. units (second, meters, Newtons, ...)
Angles are in degrees

endheader
time	SC_y	SC_z	SC_x	AC_y	AC_z	AC_x	GH_y	GH_z	GH_yy	EL_x	PS_y
       0.0              -53.77          12.87          74.77          59.04          9.465         -18.49          177.2          5.782          -72.7          117.7          88.51
   0.03256              -53.77          12.87          74.77          59.04          9.463         -18.49          177.2           5.79         -72.71          117.7          88.51
   0.06512              -53.77          12.87          74.77          59.04          9.461         -18.48          177.2          5.798         -72.72          117.7          88.51
   0.09768              -53.77          12.87          74.77          59.04          9.459         -18.48          177.1          5.807         -72.73          117.7           88.5
    0.1302              -53.77          12.87          74.76          59.04          9.457         -18.47          177.1          5.816         -72.74          117.7           88.5
    0.1628              -53.77          12.87          74.76          59.04          9.454         -18.46          177.0          5.826         -72.75          117.7          88.49
    0.1954              -53.77          12.87          74.75          59.04          9.452         -18.46          177.0          5.836         -72.76          117.6          88.49
    0.2279              -53.77          12.87          74.75          59.05          9.449         -18.45          176.9          5.848         -72.78          117.6          88.48
    0.2605              -53.77          12.87          74.75          59.05          9.446         -18.44          176.8           5.86         -72.79          117.6          88.47
     0.293              -53.77          12.87          74.74          59.05          9.443         -18.44          176.8          5.872         -72.81          117.6          88.47
    0.3256              -53.77          12.87          74.74          59.05           9.44         -18.43          176.7          5.886         -72.83          117.6          88.46
    0.3581              -53.77          12.87          74.73          59.05          9.436         -18.42          176.6          5.901         -72.85          117.6          88.45
    0.3907              -53.77          12.87          74.72          59.05          9.432         -18.41          176.5          5.917         -72.87          117.6          88.44
    0.4233              -53.77          12.87          74.72          59.06          9.428          -18.4          176.5          5.935         -72.89          117.5          88.44
    0.4558              -53.77          12.87          74.71          59.06          9.423         -18.39          176.4          5.954         -72.91          117.5          88.43
    0.4884              -53.77          12.87           74.7          59.06          9.418         -18.37          176.2          5.974         -72.94          117.5          88.42
    0.5209              -53.78          12.87           74.7          59.07          9.413         -18.36          176.1          5.996         -72.97          117.5           88.4
    0.5535              -53.78          12.87          74.69          59.07          9.407         -18.35          176.0           6.02          -73.0          117.4          88.39
    0.5861              -53.78          12.87          74.68          59.07            9.4         -18.33          175.9          6.047         -73.03          117.4          88.38
    0.6186              -53.78          12.87          74.67          59.08          9.393         -18.31          175.7          6.075         -73.07          117.4          88.36
    0.6512              -53.78          12.87          74.65          59.08          9.386         -18.29          175.6          6.107         -73.11          117.4          88.35
    0.6837              -53.78          12.87          74.64          59.08          9.377         -18.27          175.4          6.142         -73.15          117.3          88.33
    0.7163              -53.78          12.87          74.63          59.09          9.368         -18.25          175.2           6.18          -73.2          117.3          88.31
    0.7488              -53.78          12.87          74.61          59.09          9.357         -18.22          174.9          6.223         -73.25          117.2          88.29
    0.7814              -53.78          12.87          74.59           59.1          9.346          -18.2          174.7          6.271         -73.31          117.2          88.26
     0.814              -53.79          12.87          74.57          59.11          9.333         -18.16          174.4          6.324         -73.38          117.1          88.23
    0.8465              -53.79          12.87          74.55          59.12          9.318         -18.13          174.1          6.383         -73.46          117.1           88.2
    0.8791              -53.79          12.87          74.53          59.12          9.302         -18.09          173.8           6.45         -73.54          117.0          88.17
    0.9116              -53.79          12.87           74.5          59.13          9.283         -18.04          173.4          6.525         -73.64          116.9          88.13
    0.9442               -53.8          12.87          74.47          59.15          9.262         -17.99          172.9           6.61         -73.74          116.8          88.09
    0.9768               -53.8          12.88          74.43          59.16          9.239         -17.93          172.4          6.708         -73.87          116.7          88.04
     1.009               -53.8          12.88          74.39          59.17          9.211         -17.87          171.8           6.82         -74.01          116.6          87.98
     1.042              -53.81          12.88          74.34          59.19          9.179         -17.79          171.2           6.95         -74.17          116.4          87.91
     1.074              -53.81          12.88          74.29          59.21          9.143          -17.7          170.4            7.1         -74.36          116.3          87.83
     1.107              -53.82          12.88          74.22          59.23            9.1         -17.59          169.5          7.276         -74.59          116.1          87.74
      1.14              -53.83          12.88          74.14          59.26          9.049         -17.47          168.4          7.483         -74.85          115.9          87.64
     1.172              -53.84          12.89          74.05          59.29          8.989         -17.32          167.1           7.73         -75.16          115.6          87.51
     1.205              -53.85          12.89          73.94          59.33          8.916         -17.14          165.6          8.025         -75.54          115.3          87.36
     1.237              -53.86          12.89          73.81          59.38          8.829         -16.93          163.7          8.383         -75.99          114.9          87.17
      1.27              -53.87           12.9          73.65          59.43          8.722         -16.66          161.4           8.82         -76.54          114.4          86.95
     1.302              -53.89           12.9          73.45           59.5           8.59         -16.34          158.6          9.359         -77.22          113.8          86.67
     1.335              -53.91          12.91           73.2          59.59          8.426         -15.93          155.1          10.03         -78.08          113.1          86.32
     1.367              -53.94          12.92          72.89           59.7          8.219         -15.42          150.7          10.88         -79.15          112.2          85.88
       1.4              -53.98          12.93          72.49          59.84          7.956         -14.78          145.1          11.95         -80.51          111.0          85.33
     1.433              -54.03          12.95          71.98          60.02          7.619         -13.95          137.9          13.33         -82.25          109.5          84.61
     1.465              -54.09          12.97          71.32          60.25          7.187         -12.88          128.7           15.1         -84.49          107.6           83.7
     1.498              -54.17          12.99          70.48          60.55          6.634         -11.53          116.9          17.36         -87.35          105.1          82.54
      1.53              -54.26          13.02          69.43          60.92           5.94         -9.817          102.1           20.2         -90.95          102.0          81.07
     1.563              -54.38          13.06          68.15          61.37          5.094         -7.734          84.12          23.66         -95.33          98.27          79.28
     1.595              -54.52           13.1          66.66          61.89          4.113         -5.321          63.22          27.67         -100.4           93.9          77.21
     1.628              -54.67          13.15          65.05          62.46          3.051         -2.708           40.6          32.01         -105.9          89.18          74.97
      1.66              -54.82          13.19          63.44          63.03          1.989       -0.09475          17.97          36.35         -111.4          84.46          72.72
     1.693              -54.96          13.24          61.95          63.55          1.008          2.319         -2.927          40.36         -116.5          80.09          70.65
     1.726              -55.08          13.27          60.67           64.0         0.1621          4.401         -20.95          43.82         -120.9          76.33          68.86
     1.758              -55.17           13.3          59.62          64.37        -0.5323          6.109         -35.75          46.66         -124.5          73.24           67.4
     1.791              -55.25          13.33          58.78          64.67         -1.085          7.468         -47.51          48.92         -127.3          70.79          66.23
     1.823              -55.31          13.35          58.13           64.9         -1.517          8.532         -56.72          50.69         -129.6          68.86          65.32
     1.856              -55.36          13.36          57.62          65.08         -1.854          9.361          -63.9          52.07         -131.3          67.36          64.61
     1.888               -55.4          13.37          57.22          65.22         -2.117          10.01         -69.51          53.14         -132.7          66.19          64.05
     1.921              -55.42          13.38           56.9          65.33         -2.324          10.52         -73.92          53.99         -133.7          65.27          63.61
     1.954              -55.45          13.39          56.65          65.42         -2.488          10.92         -77.42          54.66         -134.6          64.54          63.26
     1.986              -55.47           13.4          56.45          65.49          -2.62          11.25         -80.23           55.2         -135.3          63.96          62.99
     2.019              -55.48           13.4          56.29          65.55         -2.727          11.51         -82.51          55.64         -135.8          63.48          62.76
     2.051              -55.49           13.4          56.16          65.59         -2.814          11.72         -84.37          55.99         -136.3          63.09          62.58
     2.084               -55.5          13.41          56.05          65.63         -2.887           11.9         -85.91          56.29         -136.7          62.77          62.42
